<svg width="126" height="92" viewBox="0 0 126 92" fill="none" xmlns="http://www.w3.org/2000/svg">
<path d="M50.5 6.25C46.9825 6.6625 44.56 7.5375 42.7275 9.385C39.25 12.89 39.25 18.53 39.25 29.815C39.25 41.0975 39.25 46.74 42.7275 50.245C46.205 53.75 51.8025 53.75 63 53.75C74.195 53.75 79.795 53.75 83.2725 50.245C86.75 46.74 86.75 41.0975 86.75 29.815C86.75 18.5325 86.75 12.89 83.2725 9.385C81.44 7.535 79.0175 6.6625 75.5 6.25" stroke="#5E7EEF" stroke-width="2.5" stroke-linecap="round" stroke-linejoin="round"/>
<path d="M56.75 20C57.98 21.265 61.25 26.25 63 26.25M63 26.25C64.75 26.25 68.02 21.265 69.25 20M63 26.25V6.25M86.75 33.75H74.435C72.33 33.75 70.6775 35.51 69.7475 37.3675C68.74 39.3875 66.7225 41.25 63 41.25C59.2775 41.25 57.26 39.3875 56.25 37.3675C55.325 35.51 53.67 33.75 51.565 33.75H39.25" stroke="#5E7EEF" stroke-width="2.5" stroke-linecap="round" stroke-linejoin="round"/>
<mask id="path-3-outside-1_9005_9544" maskUnits="userSpaceOnUse" x="0" y="70" width="126" height="22" fill="black">
<rect fill="white" y="70" width="126" height="22"/>
<path d="M2.25 79.1738L4.30078 76.4883L1.27344 75.6094L1.79102 74.0078L4.79883 75.1602L4.66211 71.7715H6.36133L6.20508 75.2285L9.16406 74.0762L9.68164 75.707L6.5957 76.5957L8.59766 79.2227L7.2207 80.2188L5.41406 77.3867L3.63672 80.1406L2.25 79.1738ZM17.9727 75.4336H20.3262L20.209 79.1543C20.1764 80.235 20.0527 81.1628 19.8379 81.9375C19.623 82.7122 19.3431 83.3665 18.998 83.9004C18.653 84.4277 18.2624 84.8607 17.8262 85.1992C17.3965 85.5378 16.944 85.8047 16.4688 86H15.7754V84.1445L16.1074 84.125C16.3874 83.8255 16.6283 83.526 16.8301 83.2266C17.0384 82.9206 17.2142 82.5853 17.3574 82.2207C17.5007 81.8496 17.6113 81.4167 17.6895 80.9219C17.7741 80.4271 17.8294 79.8379 17.8555 79.1543L17.9727 75.4336ZM18.5977 75.4336H25.2969V86H22.9531V77.4258H18.5977V75.4336ZM15.2383 84.125H26.7422V89.1445H24.3887V86H17.6211V89.1445H15.2285L15.2383 84.125ZM27.9727 80.834V80.6094C27.9727 79.8477 28.0833 79.1413 28.3047 78.4902C28.526 77.8327 28.8451 77.263 29.2617 76.7812C29.6849 76.293 30.1992 75.9154 30.8047 75.6484C31.4167 75.375 32.1068 75.2383 32.875 75.2383C33.6497 75.2383 34.3398 75.375 34.9453 75.6484C35.5573 75.9154 36.0749 76.293 36.498 76.7812C36.9212 77.263 37.2435 77.8327 37.4648 78.4902C37.6862 79.1413 37.7969 79.8477 37.7969 80.6094V80.834C37.7969 81.5957 37.6862 82.3021 37.4648 82.9531C37.2435 83.6042 36.9212 84.1738 36.498 84.6621C36.0749 85.1439 35.5605 85.5215 34.9551 85.7949C34.3496 86.0618 33.6628 86.1953 32.8945 86.1953C32.1198 86.1953 31.4264 86.0618 30.8145 85.7949C30.209 85.5215 29.6947 85.1439 29.2715 84.6621C28.8483 84.1738 28.526 83.6042 28.3047 82.9531C28.0833 82.3021 27.9727 81.5957 27.9727 80.834ZM30.3262 80.6094V80.834C30.3262 81.3092 30.375 81.7585 30.4727 82.1816C30.5703 82.6048 30.7233 82.9759 30.9316 83.2949C31.14 83.6139 31.4069 83.8646 31.7324 84.0469C32.0579 84.2292 32.4453 84.3203 32.8945 84.3203C33.3307 84.3203 33.7083 84.2292 34.0273 84.0469C34.3529 83.8646 34.6198 83.6139 34.8281 83.2949C35.0365 82.9759 35.1895 82.6048 35.2871 82.1816C35.3913 81.7585 35.4434 81.3092 35.4434 80.834V80.6094C35.4434 80.1406 35.3913 79.6979 35.2871 79.2812C35.1895 78.8581 35.0332 78.4837 34.8184 78.1582C34.61 77.8327 34.3431 77.5788 34.0176 77.3965C33.6986 77.2077 33.3177 77.1133 32.875 77.1133C32.4323 77.1133 32.0482 77.2077 31.7227 77.3965C31.4036 77.5788 31.14 77.8327 30.9316 78.1582C30.7233 78.4837 30.5703 78.8581 30.4727 79.2812C30.375 79.6979 30.3262 80.1406 30.3262 80.6094ZM47.377 77.8262H48.7832C49.3301 77.8262 49.7826 77.7318 50.1406 77.543C50.5052 77.3542 50.7754 77.0938 50.9512 76.7617C51.127 76.4297 51.2148 76.0488 51.2148 75.6191C51.2148 75.1699 51.1335 74.7858 50.9707 74.4668C50.8145 74.1413 50.5736 73.8906 50.248 73.7148C49.929 73.5391 49.5221 73.4512 49.0273 73.4512C48.6107 73.4512 48.2331 73.5358 47.8945 73.7051C47.5625 73.8678 47.2988 74.1022 47.1035 74.4082C46.9082 74.7077 46.8105 75.0658 46.8105 75.4824H44.4473C44.4473 74.7272 44.6458 74.0566 45.043 73.4707C45.4401 72.8848 45.9805 72.4258 46.6641 72.0938C47.3542 71.7552 48.1289 71.5859 48.9883 71.5859C49.9062 71.5859 50.707 71.7389 51.3906 72.0449C52.0807 72.3444 52.6178 72.7936 53.002 73.3926C53.3861 73.9915 53.5781 74.7337 53.5781 75.6191C53.5781 76.0228 53.4837 76.4329 53.2949 76.8496C53.1061 77.2663 52.8262 77.6471 52.4551 77.9922C52.084 78.3307 51.6217 78.6074 51.0684 78.8223C50.515 79.0306 49.8737 79.1348 49.1445 79.1348H47.377V77.8262ZM47.377 79.6621V78.373H49.1445C49.9779 78.373 50.6875 78.4707 51.2734 78.666C51.8659 78.8613 52.3477 79.1315 52.7188 79.4766C53.0898 79.8151 53.36 80.2025 53.5293 80.6387C53.7051 81.0749 53.793 81.5371 53.793 82.0254C53.793 82.6895 53.6725 83.2819 53.4316 83.8027C53.1973 84.3171 52.862 84.7533 52.4258 85.1113C51.9896 85.4694 51.4785 85.7396 50.8926 85.9219C50.3132 86.1042 49.6816 86.1953 48.998 86.1953C48.3861 86.1953 47.8001 86.1107 47.2402 85.9414C46.6803 85.7721 46.179 85.5215 45.7363 85.1895C45.2936 84.8509 44.9421 84.431 44.6816 83.9297C44.4277 83.4219 44.3008 82.8359 44.3008 82.1719H46.6543C46.6543 82.5951 46.752 82.9694 46.9473 83.2949C47.1491 83.6139 47.429 83.8646 47.7871 84.0469C48.1517 84.2292 48.5684 84.3203 49.0371 84.3203C49.5319 84.3203 49.9583 84.2324 50.3164 84.0566C50.6745 83.8809 50.9479 83.6204 51.1367 83.2754C51.332 82.9303 51.4297 82.5137 51.4297 82.0254C51.4297 81.472 51.3223 81.0228 51.1074 80.6777C50.8926 80.3327 50.5866 80.0788 50.1895 79.916C49.7923 79.7467 49.3236 79.6621 48.7832 79.6621H47.377ZM60.8535 78.9883V80.8633H55.6875V78.9883H60.8535ZM64.7109 75.4336L66.7227 78.9395L68.7734 75.4336H71.3613L68.1582 80.6191L71.4883 86H68.9004L66.752 82.3477L64.6035 86H62.0059L65.3262 80.6191L62.1328 75.4336H64.7109ZM78.0312 75.4336H80.3848V84.125H83.7344V75.4336H86.1074V84.125H89.4473V75.4336H91.8008V86H78.0312V75.4336ZM99.2422 75.4336V86H96.8789V75.4336H99.2422ZM102.709 75.4336V77.2891H93.4707V75.4336H102.709ZM107.465 84.8477L110.336 75.4336H112.855L108.617 87.6113C108.52 87.8717 108.393 88.1549 108.236 88.4609C108.08 88.7669 107.875 89.0566 107.621 89.3301C107.374 89.61 107.064 89.8346 106.693 90.0039C106.322 90.1797 105.873 90.2676 105.346 90.2676C105.137 90.2676 104.936 90.248 104.74 90.209C104.551 90.1764 104.372 90.1406 104.203 90.1016L104.193 88.3047C104.258 88.3112 104.337 88.3177 104.428 88.3242C104.525 88.3307 104.604 88.334 104.662 88.334C105.053 88.334 105.378 88.2852 105.639 88.1875C105.899 88.0964 106.111 87.9466 106.273 87.7383C106.443 87.5299 106.586 87.25 106.703 86.8984L107.465 84.8477ZM105.844 75.4336L108.354 83.3438L108.773 85.8242L107.143 86.2441L103.305 75.4336H105.844ZM116.742 75.4336V86H114.389V75.4336H116.742ZM123.637 75.4336L118.881 81.791H116.195L115.883 79.6621H117.846L120.697 75.4336H123.637ZM120.883 86L117.699 81.3906L119.555 80.0527L123.979 86H120.883Z"/>
</mask>
<path d="M2.25 79.1738L4.30078 76.4883L1.27344 75.6094L1.79102 74.0078L4.79883 75.1602L4.66211 71.7715H6.36133L6.20508 75.2285L9.16406 74.0762L9.68164 75.707L6.5957 76.5957L8.59766 79.2227L7.2207 80.2188L5.41406 77.3867L3.63672 80.1406L2.25 79.1738ZM17.9727 75.4336H20.3262L20.209 79.1543C20.1764 80.235 20.0527 81.1628 19.8379 81.9375C19.623 82.7122 19.3431 83.3665 18.998 83.9004C18.653 84.4277 18.2624 84.8607 17.8262 85.1992C17.3965 85.5378 16.944 85.8047 16.4688 86H15.7754V84.1445L16.1074 84.125C16.3874 83.8255 16.6283 83.526 16.8301 83.2266C17.0384 82.9206 17.2142 82.5853 17.3574 82.2207C17.5007 81.8496 17.6113 81.4167 17.6895 80.9219C17.7741 80.4271 17.8294 79.8379 17.8555 79.1543L17.9727 75.4336ZM18.5977 75.4336H25.2969V86H22.9531V77.4258H18.5977V75.4336ZM15.2383 84.125H26.7422V89.1445H24.3887V86H17.6211V89.1445H15.2285L15.2383 84.125ZM27.9727 80.834V80.6094C27.9727 79.8477 28.0833 79.1413 28.3047 78.4902C28.526 77.8327 28.8451 77.263 29.2617 76.7812C29.6849 76.293 30.1992 75.9154 30.8047 75.6484C31.4167 75.375 32.1068 75.2383 32.875 75.2383C33.6497 75.2383 34.3398 75.375 34.9453 75.6484C35.5573 75.9154 36.0749 76.293 36.498 76.7812C36.9212 77.263 37.2435 77.8327 37.4648 78.4902C37.6862 79.1413 37.7969 79.8477 37.7969 80.6094V80.834C37.7969 81.5957 37.6862 82.3021 37.4648 82.9531C37.2435 83.6042 36.9212 84.1738 36.498 84.6621C36.0749 85.1439 35.5605 85.5215 34.9551 85.7949C34.3496 86.0618 33.6628 86.1953 32.8945 86.1953C32.1198 86.1953 31.4264 86.0618 30.8145 85.7949C30.209 85.5215 29.6947 85.1439 29.2715 84.6621C28.8483 84.1738 28.526 83.6042 28.3047 82.9531C28.0833 82.3021 27.9727 81.5957 27.9727 80.834ZM30.3262 80.6094V80.834C30.3262 81.3092 30.375 81.7585 30.4727 82.1816C30.5703 82.6048 30.7233 82.9759 30.9316 83.2949C31.14 83.6139 31.4069 83.8646 31.7324 84.0469C32.0579 84.2292 32.4453 84.3203 32.8945 84.3203C33.3307 84.3203 33.7083 84.2292 34.0273 84.0469C34.3529 83.8646 34.6198 83.6139 34.8281 83.2949C35.0365 82.9759 35.1895 82.6048 35.2871 82.1816C35.3913 81.7585 35.4434 81.3092 35.4434 80.834V80.6094C35.4434 80.1406 35.3913 79.6979 35.2871 79.2812C35.1895 78.8581 35.0332 78.4837 34.8184 78.1582C34.61 77.8327 34.3431 77.5788 34.0176 77.3965C33.6986 77.2077 33.3177 77.1133 32.875 77.1133C32.4323 77.1133 32.0482 77.2077 31.7227 77.3965C31.4036 77.5788 31.14 77.8327 30.9316 78.1582C30.7233 78.4837 30.5703 78.8581 30.4727 79.2812C30.375 79.6979 30.3262 80.1406 30.3262 80.6094ZM47.377 77.8262H48.7832C49.3301 77.8262 49.7826 77.7318 50.1406 77.543C50.5052 77.3542 50.7754 77.0938 50.9512 76.7617C51.127 76.4297 51.2148 76.0488 51.2148 75.6191C51.2148 75.1699 51.1335 74.7858 50.9707 74.4668C50.8145 74.1413 50.5736 73.8906 50.248 73.7148C49.929 73.5391 49.5221 73.4512 49.0273 73.4512C48.6107 73.4512 48.2331 73.5358 47.8945 73.7051C47.5625 73.8678 47.2988 74.1022 47.1035 74.4082C46.9082 74.7077 46.8105 75.0658 46.8105 75.4824H44.4473C44.4473 74.7272 44.6458 74.0566 45.043 73.4707C45.4401 72.8848 45.9805 72.4258 46.6641 72.0938C47.3542 71.7552 48.1289 71.5859 48.9883 71.5859C49.9062 71.5859 50.707 71.7389 51.3906 72.0449C52.0807 72.3444 52.6178 72.7936 53.002 73.3926C53.3861 73.9915 53.5781 74.7337 53.5781 75.6191C53.5781 76.0228 53.4837 76.4329 53.2949 76.8496C53.1061 77.2663 52.8262 77.6471 52.4551 77.9922C52.084 78.3307 51.6217 78.6074 51.0684 78.8223C50.515 79.0306 49.8737 79.1348 49.1445 79.1348H47.377V77.8262ZM47.377 79.6621V78.373H49.1445C49.9779 78.373 50.6875 78.4707 51.2734 78.666C51.8659 78.8613 52.3477 79.1315 52.7188 79.4766C53.0898 79.8151 53.36 80.2025 53.5293 80.6387C53.7051 81.0749 53.793 81.5371 53.793 82.0254C53.793 82.6895 53.6725 83.2819 53.4316 83.8027C53.1973 84.3171 52.862 84.7533 52.4258 85.1113C51.9896 85.4694 51.4785 85.7396 50.8926 85.9219C50.3132 86.1042 49.6816 86.1953 48.998 86.1953C48.3861 86.1953 47.8001 86.1107 47.2402 85.9414C46.6803 85.7721 46.179 85.5215 45.7363 85.1895C45.2936 84.8509 44.9421 84.431 44.6816 83.9297C44.4277 83.4219 44.3008 82.8359 44.3008 82.1719H46.6543C46.6543 82.5951 46.752 82.9694 46.9473 83.2949C47.1491 83.6139 47.429 83.8646 47.7871 84.0469C48.1517 84.2292 48.5684 84.3203 49.0371 84.3203C49.5319 84.3203 49.9583 84.2324 50.3164 84.0566C50.6745 83.8809 50.9479 83.6204 51.1367 83.2754C51.332 82.9303 51.4297 82.5137 51.4297 82.0254C51.4297 81.472 51.3223 81.0228 51.1074 80.6777C50.8926 80.3327 50.5866 80.0788 50.1895 79.916C49.7923 79.7467 49.3236 79.6621 48.7832 79.6621H47.377ZM60.8535 78.9883V80.8633H55.6875V78.9883H60.8535ZM64.7109 75.4336L66.7227 78.9395L68.7734 75.4336H71.3613L68.1582 80.6191L71.4883 86H68.9004L66.752 82.3477L64.6035 86H62.0059L65.3262 80.6191L62.1328 75.4336H64.7109ZM78.0312 75.4336H80.3848V84.125H83.7344V75.4336H86.1074V84.125H89.4473V75.4336H91.8008V86H78.0312V75.4336ZM99.2422 75.4336V86H96.8789V75.4336H99.2422ZM102.709 75.4336V77.2891H93.4707V75.4336H102.709ZM107.465 84.8477L110.336 75.4336H112.855L108.617 87.6113C108.52 87.8717 108.393 88.1549 108.236 88.4609C108.08 88.7669 107.875 89.0566 107.621 89.3301C107.374 89.61 107.064 89.8346 106.693 90.0039C106.322 90.1797 105.873 90.2676 105.346 90.2676C105.137 90.2676 104.936 90.248 104.74 90.209C104.551 90.1764 104.372 90.1406 104.203 90.1016L104.193 88.3047C104.258 88.3112 104.337 88.3177 104.428 88.3242C104.525 88.3307 104.604 88.334 104.662 88.334C105.053 88.334 105.378 88.2852 105.639 88.1875C105.899 88.0964 106.111 87.9466 106.273 87.7383C106.443 87.5299 106.586 87.25 106.703 86.8984L107.465 84.8477ZM105.844 75.4336L108.354 83.3438L108.773 85.8242L107.143 86.2441L103.305 75.4336H105.844ZM116.742 75.4336V86H114.389V75.4336H116.742ZM123.637 75.4336L118.881 81.791H116.195L115.883 79.6621H117.846L120.697 75.4336H123.637ZM120.883 86L117.699 81.3906L119.555 80.0527L123.979 86H120.883Z" fill="#5E7EEF"/>
<path d="M2.25 79.1738L1.45523 78.5669L0.821429 79.3969L1.67809 79.9941L2.25 79.1738ZM4.30078 76.4883L5.09555 77.0952L5.98155 75.935L4.57959 75.5279L4.30078 76.4883ZM1.27344 75.6094L0.321893 75.3019L0.0050084 76.2824L0.994627 76.5697L1.27344 75.6094ZM1.79102 74.0078L2.14878 73.074L1.16382 72.6966L0.839471 73.7003L1.79102 74.0078ZM4.79883 75.1602L4.44107 76.094L5.85924 76.6373L5.79802 75.1198L4.79883 75.1602ZM4.66211 71.7715V70.7715H3.62095L3.66292 71.8118L4.66211 71.7715ZM6.36133 71.7715L7.36031 71.8166L7.40755 70.7715H6.36133V71.7715ZM6.20508 75.2285L5.2061 75.1834L5.13675 76.7177L6.56797 76.1603L6.20508 75.2285ZM9.16406 74.0762L10.1172 73.7737L9.79469 72.7574L8.80117 73.1443L9.16406 74.0762ZM9.68164 75.707L9.95837 76.668L10.9455 76.3837L10.6348 75.4045L9.68164 75.707ZM6.5957 76.5957L6.31897 75.6348L4.91435 76.0393L5.80034 77.2018L6.5957 76.5957ZM8.59766 79.2227L9.18378 80.0329L10.0145 79.432L9.39302 78.6165L8.59766 79.2227ZM7.2207 80.2188L6.37764 80.7566L6.94783 81.6504L7.80682 81.029L7.2207 80.2188ZM5.41406 77.3867L6.25712 76.8489L5.41895 75.535L4.57385 76.8445L5.41406 77.3867ZM3.63672 80.1406L3.06481 80.9609L3.91495 81.5536L4.47693 80.6829L3.63672 80.1406ZM3.04477 79.7807L5.09555 77.0952L3.50601 75.8814L1.45523 78.5669L3.04477 79.7807ZM4.57959 75.5279L1.55225 74.649L0.994627 76.5697L4.02197 77.4486L4.57959 75.5279ZM2.22498 75.9169L2.74256 74.3153L0.839471 73.7003L0.321893 75.3019L2.22498 75.9169ZM1.43326 74.9416L4.44107 76.094L5.15659 74.2263L2.14878 73.074L1.43326 74.9416ZM5.79802 75.1198L5.6613 71.7312L3.66292 71.8118L3.79964 75.2005L5.79802 75.1198ZM4.66211 72.7715H6.36133V70.7715H4.66211V72.7715ZM5.36235 71.7263L5.2061 75.1834L7.20406 75.2737L7.36031 71.8166L5.36235 71.7263ZM6.56797 76.1603L9.52695 75.008L8.80117 73.1443L5.84219 74.2967L6.56797 76.1603ZM8.21091 74.3787L8.72849 76.0095L10.6348 75.4045L10.1172 73.7737L8.21091 74.3787ZM9.40491 74.7461L6.31897 75.6348L6.87243 77.5567L9.95837 76.668L9.40491 74.7461ZM5.80034 77.2018L7.80229 79.8288L9.39302 78.6165L7.39107 75.9896L5.80034 77.2018ZM8.01154 78.4124L6.63458 79.4085L7.80682 81.029L9.18378 80.0329L8.01154 78.4124ZM8.06377 79.6809L6.25712 76.8489L4.571 77.9245L6.37764 80.7566L8.06377 79.6809ZM4.57385 76.8445L2.79651 79.5984L4.47693 80.6829L6.25427 77.929L4.57385 76.8445ZM4.20863 79.3203L2.82191 78.3535L1.67809 79.9941L3.06481 80.9609L4.20863 79.3203ZM17.9727 75.4336V74.4336H17.0037L16.9732 75.4021L17.9727 75.4336ZM20.3262 75.4336L21.3257 75.4651L21.3582 74.4336H20.3262V75.4336ZM20.209 79.1543L19.2095 79.1228L19.2094 79.1242L20.209 79.1543ZM18.998 83.9004L19.8348 84.4479L19.8379 84.4432L18.998 83.9004ZM17.8262 85.1992L17.213 84.4092L17.2073 84.4137L17.8262 85.1992ZM16.4688 86V87H16.6662L16.8489 86.9249L16.4688 86ZM15.7754 86H14.7754V87H15.7754V86ZM15.7754 84.1445L15.7167 83.1463L14.7754 83.2016V84.1445H15.7754ZM16.1074 84.125L16.1661 85.1233L16.5651 85.0998L16.8379 84.8079L16.1074 84.125ZM16.8301 83.2266L16.0035 82.6638L16.0008 82.6677L16.8301 83.2266ZM17.3574 82.2207L18.2882 82.5864L18.2903 82.5808L17.3574 82.2207ZM17.6895 80.9219L16.7037 80.7533L16.7017 80.7659L17.6895 80.9219ZM17.8555 79.1543L18.8548 79.1924L18.855 79.1858L17.8555 79.1543ZM18.5977 75.4336V74.4336H17.5977V75.4336H18.5977ZM25.2969 75.4336H26.2969V74.4336H25.2969V75.4336ZM25.2969 86V87H26.2969V86H25.2969ZM22.9531 86H21.9531V87H22.9531V86ZM22.9531 77.4258H23.9531V76.4258H22.9531V77.4258ZM18.5977 77.4258H17.5977V78.4258H18.5977V77.4258ZM15.2383 84.125V83.125H14.2402L14.2383 84.1231L15.2383 84.125ZM26.7422 84.125H27.7422V83.125H26.7422V84.125ZM26.7422 89.1445V90.1445H27.7422V89.1445H26.7422ZM24.3887 89.1445H23.3887V90.1445H24.3887V89.1445ZM24.3887 86H25.3887V85H24.3887V86ZM17.6211 86V85H16.6211V86H17.6211ZM17.6211 89.1445V90.1445H18.6211V89.1445H17.6211ZM15.2285 89.1445L14.2285 89.1426L14.2266 90.1445H15.2285V89.1445ZM17.9727 76.4336H20.3262V74.4336H17.9727V76.4336ZM19.3267 75.4021L19.2095 79.1228L21.2085 79.1858L21.3257 75.4651L19.3267 75.4021ZM19.2094 79.1242C19.1785 80.1503 19.0618 80.9941 18.8743 81.6703L20.8015 82.2047C21.0437 81.3314 21.1743 80.3197 21.2085 79.1844L19.2094 79.1242ZM18.8743 81.6703C18.6797 82.372 18.436 82.9278 18.1582 83.3576L19.8379 84.4432C20.2502 83.8052 20.5664 83.0525 20.8015 82.2047L18.8743 81.6703ZM18.1613 83.3529C17.8684 83.8005 17.5504 84.1474 17.213 84.4092L18.4393 85.9892C18.9744 85.5739 19.4376 85.055 19.8348 84.4479L18.1613 83.3529ZM17.2073 84.4137C16.8457 84.6987 16.4729 84.9172 16.0886 85.0751L16.8489 86.9249C17.4151 86.6922 17.9473 86.3769 18.445 85.9847L17.2073 84.4137ZM16.4688 85H15.7754V87H16.4688V85ZM16.7754 86V84.1445H14.7754V86H16.7754ZM15.8341 85.1428L16.1661 85.1233L16.0487 83.1267L15.7167 83.1463L15.8341 85.1428ZM16.8379 84.8079C17.1493 84.4748 17.4243 84.1342 17.6593 83.7854L16.0008 82.6677C15.8322 82.9179 15.6254 83.1762 15.3769 83.4421L16.8379 84.8079ZM17.6567 83.7894C17.9093 83.4183 18.1193 83.0163 18.2882 82.5864L16.4267 81.8551C16.3091 82.1543 16.1675 82.4229 16.0035 82.6638L17.6567 83.7894ZM18.2903 82.5808C18.4646 82.1294 18.5908 81.6253 18.6772 81.0778L16.7017 80.7659C16.6319 81.208 16.5367 81.5698 16.4245 81.8606L18.2903 82.5808ZM18.6751 81.0905C18.7693 80.5402 18.8276 79.9052 18.8547 79.1924L16.8562 79.1162C16.8313 79.7706 16.7789 80.3139 16.7038 80.7533L18.6751 81.0905ZM18.855 79.1858L18.9722 75.4651L16.9732 75.4021L16.856 79.1228L18.855 79.1858ZM18.5977 76.4336H25.2969V74.4336H18.5977V76.4336ZM24.2969 75.4336V86H26.2969V75.4336H24.2969ZM25.2969 85H22.9531V87H25.2969V85ZM23.9531 86V77.4258H21.9531V86H23.9531ZM22.9531 76.4258H18.5977V78.4258H22.9531V76.4258ZM19.5977 77.4258V75.4336H17.5977V77.4258H19.5977ZM15.2383 85.125H26.7422V83.125H15.2383V85.125ZM25.7422 84.125V89.1445H27.7422V84.125H25.7422ZM26.7422 88.1445H24.3887V90.1445H26.7422V88.1445ZM25.3887 89.1445V86H23.3887V89.1445H25.3887ZM24.3887 85H17.6211V87H24.3887V85ZM16.6211 86V89.1445H18.6211V86H16.6211ZM17.6211 88.1445H15.2285V90.1445H17.6211V88.1445ZM16.2285 89.1465L16.2383 84.1269L14.2383 84.1231L14.2285 89.1426L16.2285 89.1465ZM28.3047 78.4902L29.2515 78.8121L29.2524 78.8093L28.3047 78.4902ZM29.2617 76.7812L28.506 76.1263L28.5054 76.1271L29.2617 76.7812ZM30.8047 75.6484L31.2081 76.5635L31.2126 76.5614L30.8047 75.6484ZM34.9453 75.6484L34.5337 76.5599L34.5455 76.565L34.9453 75.6484ZM36.498 76.7812L35.7423 77.4362L35.7467 77.4412L36.498 76.7812ZM37.4648 78.4902L36.5171 78.8093L36.5181 78.8121L37.4648 78.4902ZM36.498 84.6621L37.2494 85.3221L37.2537 85.317L36.498 84.6621ZM34.9551 85.7949L35.3585 86.71L35.3667 86.7063L34.9551 85.7949ZM30.8145 85.7949L30.4028 86.7064L30.4147 86.7115L30.8145 85.7949ZM29.2715 84.6621L28.5158 85.3171L28.5202 85.3221L29.2715 84.6621ZM30.9316 83.2949L30.0944 83.8417L30.9316 83.2949ZM34.0273 84.0469L33.5387 83.1743L33.5312 83.1786L34.0273 84.0469ZM34.8281 83.2949L35.6654 83.8417L34.8281 83.2949ZM35.2871 82.1816L34.3161 81.9426L34.3144 81.9497L34.3127 81.9568L35.2871 82.1816ZM35.2871 79.2812L34.3127 79.5061L34.3148 79.515L34.317 79.5238L35.2871 79.2812ZM34.8184 78.1582L33.976 78.6973L33.9837 78.709L34.8184 78.1582ZM34.0176 77.3965L33.5083 78.2571L33.5185 78.2631L33.529 78.269L34.0176 77.3965ZM31.7227 77.3965L32.2188 78.2647L32.2244 78.2615L31.7227 77.3965ZM30.4727 79.2812L31.4463 79.5094L31.447 79.5061L30.4727 79.2812ZM28.9727 80.834V80.6094H26.9727V80.834H28.9727ZM28.9727 80.6094C28.9727 79.9454 29.0689 79.349 29.2515 78.8121L27.3579 78.1683C27.0977 78.9336 26.9727 79.7499 26.9727 80.6094H28.9727ZM29.2524 78.8093C29.4361 78.2637 29.6937 77.8105 30.0181 77.4354L28.5054 76.1271C27.9964 76.7155 27.616 77.4016 27.3569 78.1712L29.2524 78.8093ZM30.0174 77.4362C30.3414 77.0623 30.7345 76.7723 31.2081 76.5635L30.4013 74.7334C29.664 75.0585 29.0284 75.5236 28.506 76.1263L30.0174 77.4362ZM31.2126 76.5614C31.6788 76.3532 32.2269 76.2383 32.875 76.2383V74.2383C31.9867 74.2383 31.1545 74.3968 30.3967 74.7354L31.2126 76.5614ZM32.875 76.2383C33.5312 76.2383 34.0774 76.3537 34.5337 76.5598L35.3569 74.7371C34.6023 74.3963 33.7683 74.2383 32.875 74.2383V76.2383ZM34.5455 76.565C35.0255 76.7744 35.4201 77.0644 35.7424 77.4362L37.2537 76.1263C36.7296 75.5216 36.0891 75.0563 35.3451 74.7318L34.5455 76.565ZM35.7467 77.4412C36.0756 77.8155 36.3345 78.2669 36.5171 78.8093L38.4126 78.1712C38.1525 77.3985 37.7669 76.7105 37.2494 76.1213L35.7467 77.4412ZM36.5181 78.8121C36.7006 79.349 36.7969 79.9454 36.7969 80.6094H38.7969C38.7969 79.7499 38.6718 78.9336 38.4116 78.1683L36.5181 78.8121ZM36.7969 80.6094V80.834H38.7969V80.6094H36.7969ZM36.7969 80.834C36.7969 81.4979 36.7006 82.0944 36.5181 82.6312L38.4116 83.275C38.6718 82.5098 38.7969 81.6935 38.7969 80.834H36.7969ZM36.5181 82.6312C36.3356 83.1679 36.0756 83.6227 35.7424 84.0072L37.2537 85.317C37.7669 84.725 38.1514 84.0404 38.4116 83.275L36.5181 82.6312ZM35.7467 84.0022C35.421 84.373 35.0239 84.6666 34.5435 84.8836L35.3667 86.7063C36.0972 86.3764 36.7287 85.9148 37.2494 85.3221L35.7467 84.0022ZM34.5517 84.8799C34.0922 85.0825 33.546 85.1953 32.8945 85.1953V87.1953C33.7795 87.1953 34.6071 87.0412 35.3585 86.7099L34.5517 84.8799ZM32.8945 85.1953C32.2355 85.1953 31.6815 85.0821 31.2142 84.8783L30.4147 86.7115C31.1714 87.0416 32.0041 87.1953 32.8945 87.1953V85.1953ZM31.226 84.8836C30.7456 84.6666 30.3485 84.373 30.0228 84.0022L28.5202 85.3221C29.0408 85.9148 29.6723 86.3764 30.4029 86.7063L31.226 84.8836ZM30.0272 84.0072C29.6939 83.6227 29.4339 83.1679 29.2515 82.6312L27.3579 83.275C27.6182 84.0404 28.0027 84.725 28.5158 85.317L30.0272 84.0072ZM29.2515 82.6312C29.0689 82.0944 28.9727 81.4979 28.9727 80.834H26.9727C26.9727 81.6935 27.0977 82.5098 27.3579 83.275L29.2515 82.6312ZM29.3262 80.6094V80.834H31.3262V80.6094H29.3262ZM29.3262 80.834C29.3262 81.3779 29.3821 81.903 29.4983 82.4065L31.447 81.9568C31.3679 81.6139 31.3262 81.2406 31.3262 80.834H29.3262ZM29.4983 82.4065C29.6187 82.9284 29.8134 83.4115 30.0944 83.8417L31.7689 82.7481C31.6332 82.5403 31.5219 82.2812 31.447 81.9568L29.4983 82.4065ZM30.0944 83.8417C30.389 84.2929 30.7744 84.6565 31.2438 84.9194L32.221 83.1744C32.0394 83.0726 31.891 82.935 31.7689 82.7481L30.0944 83.8417ZM31.2438 84.9194C31.7463 85.2008 32.309 85.3203 32.8945 85.3203V83.3203C32.5816 83.3203 32.3696 83.2576 32.221 83.1744L31.2438 84.9194ZM32.8945 85.3203C33.4721 85.3203 34.0273 85.1986 34.5235 84.9151L33.5312 83.1786C33.3893 83.2597 33.1894 83.3203 32.8945 83.3203V85.3203ZM34.5159 84.9194C34.9853 84.6565 35.3708 84.2929 35.6654 83.8417L33.9909 82.7481C33.8688 82.935 33.7204 83.0726 33.5387 83.1744L34.5159 84.9194ZM35.6654 83.8417C35.9463 83.4115 36.1411 82.9284 36.2615 82.4065L34.3127 81.9568C34.2378 82.2812 34.1266 82.5403 33.9909 82.7481L35.6654 83.8417ZM36.2581 82.4207C36.3832 81.9126 36.4434 81.3826 36.4434 80.834H34.4434C34.4434 81.2359 34.3994 81.6044 34.3161 81.9426L36.2581 82.4207ZM36.4434 80.834V80.6094H34.4434V80.834H36.4434ZM36.4434 80.6094C36.4434 80.0662 36.383 79.5416 36.2573 79.0387L34.317 79.5238C34.3996 79.8543 34.4434 80.215 34.4434 80.6094H36.4434ZM36.2615 79.0564C36.1401 78.5302 35.9405 78.043 35.653 77.6074L33.9837 78.709C34.1259 78.9245 34.2388 79.1859 34.3127 79.5061L36.2615 79.0564ZM35.6606 77.6191C35.3669 77.1602 34.9805 76.7896 34.5062 76.524L33.529 78.269C33.7057 78.368 33.8531 78.5051 33.9761 78.6973L35.6606 77.6191ZM34.5269 76.5359C34.0261 76.2395 33.4619 76.1133 32.875 76.1133V78.1133C33.1735 78.1133 33.371 78.1758 33.5083 78.2571L34.5269 76.5359ZM32.875 76.1133C32.2874 76.1133 31.7239 76.2398 31.2209 76.5315L32.2244 78.2615C32.3725 78.1756 32.5772 78.1133 32.875 78.1133V76.1133ZM31.2265 76.5282C30.7599 76.7949 30.3801 77.1648 30.0894 77.6191L31.7739 78.6973C31.8998 78.5005 32.0474 78.3627 32.2188 78.2647L31.2265 76.5282ZM30.0894 77.6191C29.8122 78.0522 29.6185 78.5354 29.4983 79.0564L31.447 79.5061C31.5221 79.1808 31.6344 78.9152 31.7739 78.6973L30.0894 77.6191ZM29.499 79.0531C29.3823 79.5512 29.3262 80.071 29.3262 80.6094H31.3262C31.3262 80.2102 31.3677 79.8446 31.4463 79.5094L29.499 79.0531ZM47.377 77.8262V76.8262H46.377V77.8262H47.377ZM50.1406 77.543L49.6808 76.655L49.6742 76.6584L50.1406 77.543ZM50.9707 74.4668L50.0692 74.8995L50.0744 74.9105L50.0799 74.9213L50.9707 74.4668ZM50.248 73.7148L49.7654 74.5907L49.7729 74.5947L50.248 73.7148ZM47.8945 73.7051L48.3347 74.603L48.3417 74.5995L47.8945 73.7051ZM47.1035 74.4082L47.9412 74.9545L47.9464 74.9462L47.1035 74.4082ZM46.8105 75.4824V76.4824H47.8105V75.4824H46.8105ZM44.4473 75.4824H43.4473V76.4824H44.4473V75.4824ZM46.6641 72.0938L47.101 72.9933L47.1045 72.9915L46.6641 72.0938ZM51.3906 72.0449L50.982 72.9577L50.9925 72.9623L51.3906 72.0449ZM52.4551 77.9922L53.1291 78.731L53.136 78.7245L52.4551 77.9922ZM51.0684 78.8223L51.4207 79.7582L51.4303 79.7545L51.0684 78.8223ZM47.377 79.1348H46.377V80.1348H47.377V79.1348ZM47.377 79.6621H46.377V80.6621H47.377V79.6621ZM47.377 78.373V77.373H46.377V78.373H47.377ZM51.2734 78.666L50.9572 79.6147L50.9603 79.6157L51.2734 78.666ZM52.7188 79.4766L52.0378 80.2089L52.0448 80.2153L52.7188 79.4766ZM53.5293 80.6387L52.597 81.0005L52.6018 81.0124L53.5293 80.6387ZM53.4316 83.8027L52.524 83.3829L52.5217 83.3881L53.4316 83.8027ZM50.8926 85.9219L50.5955 84.967L50.5925 84.968L50.8926 85.9219ZM45.7363 85.1895L45.1289 85.9838L45.1363 85.9895L45.7363 85.1895ZM44.6816 83.9297L43.7872 84.3769L43.7907 84.3838L43.7942 84.3907L44.6816 83.9297ZM44.3008 82.1719V81.1719H43.3008V82.1719H44.3008ZM46.6543 82.1719H47.6543V81.1719H46.6543V82.1719ZM46.9473 83.2949L46.0898 83.8094L46.0959 83.8196L46.1022 83.8296L46.9473 83.2949ZM47.7871 84.0469L47.3334 84.9381L47.3399 84.9413L47.7871 84.0469ZM51.1367 83.2754L50.2665 82.7828L50.2629 82.7891L50.2595 82.7954L51.1367 83.2754ZM51.1074 80.6777L50.2585 81.2063L51.1074 80.6777ZM50.1895 79.916L49.7973 80.836L49.8102 80.8413L50.1895 79.916ZM47.377 78.8262H48.7832V76.8262H47.377V78.8262ZM48.7832 78.8262C49.4381 78.8262 50.0637 78.714 50.607 78.4275L49.6742 76.6584C49.5014 76.7495 49.222 76.8262 48.7832 76.8262V78.8262ZM50.6005 78.431C51.1283 78.1576 51.5551 77.7583 51.835 77.2296L50.0674 76.2938C49.9957 76.4292 49.8822 76.5507 49.6808 76.655L50.6005 78.431ZM51.835 77.2296C52.0974 76.7339 52.2148 76.1883 52.2148 75.6191H50.2148C50.2148 75.9094 50.1565 76.1255 50.0674 76.2938L51.835 77.2296ZM52.2148 75.6191C52.2148 75.0512 52.112 74.5033 51.8615 74.0123L50.0799 74.9213C50.155 75.0683 50.2148 75.2886 50.2148 75.6191H52.2148ZM51.8722 74.0341C51.6222 73.5133 51.2296 73.1084 50.7232 72.8349L49.7729 74.5947C49.9175 74.6729 50.0067 74.7693 50.0692 74.8995L51.8722 74.0341ZM50.7307 72.839C50.2203 72.5578 49.633 72.4512 49.0273 72.4512V74.4512C49.4112 74.4512 49.6378 74.5203 49.7654 74.5907L50.7307 72.839ZM49.0273 72.4512C48.4713 72.4512 47.9383 72.5652 47.4473 72.8107L48.3417 74.5995C48.5279 74.5064 48.75 74.4512 49.0273 74.4512V72.4512ZM47.4544 72.8072C46.9609 73.0491 46.5565 73.4065 46.2606 73.8702L47.9464 74.9462C48.0411 74.7979 48.1641 74.6866 48.3347 74.603L47.4544 72.8072ZM46.2659 73.8619C45.948 74.3493 45.8105 74.9045 45.8105 75.4824H47.8105C47.8105 75.227 47.8684 75.066 47.9411 74.9545L46.2659 73.8619ZM46.8105 74.4824H44.4473V76.4824H46.8105V74.4824ZM45.4473 75.4824C45.4473 74.9132 45.5935 74.4408 45.8708 74.0318L44.2152 72.9097C43.6982 73.6725 43.4473 74.5413 43.4473 75.4824H45.4473ZM45.8708 74.0318C46.1623 73.6016 46.5631 73.2545 47.101 72.9933L46.2272 71.1942C45.3979 71.597 44.7179 72.1679 44.2152 72.9097L45.8708 74.0318ZM47.1045 72.9915C47.6421 72.7278 48.2634 72.5859 48.9883 72.5859V70.5859C47.9944 70.5859 47.0663 70.7826 46.2236 71.196L47.1045 72.9915ZM48.9883 72.5859C49.7965 72.5859 50.4526 72.7206 50.9821 72.9577L51.7992 71.1322C50.9615 70.7572 50.016 70.5859 48.9883 70.5859V72.5859ZM50.9925 72.9623C51.5115 73.1875 51.8895 73.5103 52.1602 73.9324L53.8437 72.8527C53.3462 72.0769 52.6499 71.5013 51.7887 71.1276L50.9925 72.9623ZM52.1602 73.9324C52.4184 74.335 52.5781 74.8784 52.5781 75.6191H54.5781C54.5781 74.5891 54.3538 73.6481 53.8437 72.8527L52.1602 73.9324ZM52.5781 75.6191C52.5781 75.8626 52.5219 76.1326 52.3841 76.4369L54.2058 77.2623C54.4455 76.7333 54.5781 76.183 54.5781 75.6191H52.5781ZM52.3841 76.4369C52.2556 76.7204 52.0587 76.9953 51.7741 77.2599L53.136 78.7245C53.5937 78.299 53.9567 77.8121 54.2058 77.2623L52.3841 76.4369ZM51.7811 77.2534C51.5161 77.4951 51.1653 77.7119 50.7064 77.8901L51.4303 79.7545C52.0782 79.5029 52.6518 79.1663 53.129 78.731L51.7811 77.2534ZM50.716 77.8864C50.2981 78.0437 49.7804 78.1348 49.1445 78.1348V80.1348C49.967 80.1348 50.7318 80.0175 51.4207 79.7581L50.716 77.8864ZM49.1445 78.1348H47.377V80.1348H49.1445V78.1348ZM48.377 79.1348V77.8262H46.377V79.1348H48.377ZM48.377 79.6621V78.373H46.377V79.6621H48.377ZM47.377 79.373H49.1445V77.373H47.377V79.373ZM49.1445 79.373C49.9054 79.373 50.5018 79.4629 50.9572 79.6147L51.5897 77.7173C50.8732 77.4785 50.0504 77.373 49.1445 77.373V79.373ZM50.9603 79.6157C51.4468 79.7761 51.7937 79.9819 52.0378 80.2089L53.3997 78.7442C52.9016 78.2811 52.285 77.9465 51.5865 77.7163L50.9603 79.6157ZM52.0448 80.2153C52.3104 80.4577 52.4877 80.7186 52.597 81.0004L54.4616 80.2769C54.2324 79.6863 53.8693 79.1726 53.3927 78.7378L52.0448 80.2153ZM52.6018 81.0124C52.7279 81.3253 52.793 81.6602 52.793 82.0254H54.793C54.793 81.414 54.6823 80.8244 54.4568 80.2649L52.6018 81.0124ZM52.793 82.0254C52.793 82.5672 52.6952 83.0128 52.524 83.383L54.3393 84.2225C54.6499 83.551 54.793 82.8117 54.793 82.0254H52.793ZM52.5217 83.3881C52.3505 83.7637 52.1093 84.0773 51.7913 84.3384L53.0603 85.8843C53.6146 85.4292 54.0441 84.8704 54.3416 84.2174L52.5217 83.3881ZM51.7913 84.3384C51.4632 84.6077 51.0691 84.8197 50.5955 84.967L51.1896 86.8767C51.8879 86.6595 52.516 86.3311 53.0603 85.8843L51.7913 84.3384ZM50.5925 84.968C50.1215 85.1161 49.5924 85.1953 48.998 85.1953V87.1953C49.7709 87.1953 50.5048 87.0922 51.1927 86.8758L50.5925 84.968ZM48.998 85.1953C48.4795 85.1953 47.9914 85.1238 47.5296 84.9842L46.9508 86.8986C47.6088 87.0975 48.2926 87.1953 48.998 87.1953V85.1953ZM47.5296 84.9842C47.0752 84.8468 46.6803 84.6474 46.3363 84.3895L45.1363 85.9895C45.6778 86.3956 46.2855 86.6975 46.9508 86.8986L47.5296 84.9842ZM46.3438 84.3951C46.0194 84.147 45.7627 83.8415 45.569 83.4687L43.7942 84.3907C44.1214 85.0205 44.5679 85.5548 45.1289 85.9838L46.3438 84.3951ZM45.5761 83.4825C45.4025 83.1352 45.3008 82.707 45.3008 82.1719H43.3008C43.3008 82.9649 43.453 83.7085 43.7872 84.3769L45.5761 83.4825ZM44.3008 83.1719H46.6543V81.1719H44.3008V83.1719ZM45.6543 82.1719C45.6543 82.7549 45.7908 83.3111 46.0898 83.8094L47.8048 82.7804C47.7131 82.6277 47.6543 82.4352 47.6543 82.1719H45.6543ZM46.1022 83.8296C46.4063 84.3103 46.8259 84.6797 47.3334 84.938L48.2408 83.1557C48.0321 83.0495 47.8919 82.9176 47.7923 82.7603L46.1022 83.8296ZM47.3399 84.9413C47.8628 85.2028 48.4365 85.3203 49.0371 85.3203V83.3203C48.7003 83.3203 48.4406 83.2556 48.2343 83.1524L47.3399 84.9413ZM49.0371 85.3203C49.6488 85.3203 50.2329 85.2116 50.7571 84.9543L49.8757 83.159C49.6838 83.2532 49.4151 83.3203 49.0371 83.3203V85.3203ZM50.7571 84.9543C51.2975 84.689 51.7247 84.2841 52.014 83.7554L50.2595 82.7954C50.1711 82.9568 50.0515 83.0727 49.8757 83.159L50.7571 84.9543ZM52.007 83.768C52.3049 83.2416 52.4297 82.6467 52.4297 82.0254H50.4297C50.4297 82.3806 50.3591 82.6191 50.2665 82.7828L52.007 83.768ZM52.4297 82.0254C52.4297 81.3504 52.2995 80.7004 51.9563 80.1492L50.2585 81.2063C50.345 81.3452 50.4297 81.5936 50.4297 82.0254H52.4297ZM51.9563 80.1492C51.624 79.6155 51.1486 79.2284 50.5687 78.9907L49.8102 80.8413C50.0246 80.9292 50.1611 81.0498 50.2585 81.2063L51.9563 80.1492ZM50.5816 78.9961C50.0335 78.7625 49.4255 78.6621 48.7832 78.6621V80.6621C49.2216 80.6621 49.5512 80.731 49.7974 80.8359L50.5816 78.9961ZM48.7832 78.6621H47.377V80.6621H48.7832V78.6621ZM60.8535 78.9883H61.8535V77.9883H60.8535V78.9883ZM60.8535 80.8633V81.8633H61.8535V80.8633H60.8535ZM55.6875 80.8633H54.6875V81.8633H55.6875V80.8633ZM55.6875 78.9883V77.9883H54.6875V78.9883H55.6875ZM59.8535 78.9883V80.8633H61.8535V78.9883H59.8535ZM60.8535 79.8633H55.6875V81.8633H60.8535V79.8633ZM56.6875 80.8633V78.9883H54.6875V80.8633H56.6875ZM55.6875 79.9883H60.8535V77.9883H55.6875V79.9883ZM64.7109 75.4336L65.5783 74.9359L65.2901 74.4336H64.7109V75.4336ZM66.7227 78.9395L65.8553 79.4372L66.7143 80.9342L67.5858 79.4444L66.7227 78.9395ZM68.7734 75.4336V74.4336H68.1999L67.9103 74.9287L68.7734 75.4336ZM71.3613 75.4336L72.2121 75.9591L73.1544 74.4336H71.3613V75.4336ZM68.1582 80.6191L67.3074 80.0936L66.9825 80.6196L67.3079 81.1454L68.1582 80.6191ZM71.4883 86V87H73.2832L72.3386 85.4738L71.4883 86ZM68.9004 86L68.0385 86.507L68.3284 87H68.9004V86ZM66.752 82.3477L67.6139 81.8406L66.752 80.3753L65.89 81.8406L66.752 82.3477ZM64.6035 86V87H65.1755L65.4654 86.507L64.6035 86ZM62.0059 86L61.1548 85.4749L60.2137 87H62.0059V86ZM65.3262 80.6191L66.1772 81.1443L66.5009 80.6197L66.1777 80.0948L65.3262 80.6191ZM62.1328 75.4336V74.4336H60.3426L61.2813 75.958L62.1328 75.4336ZM63.8436 75.9313L65.8553 79.4372L67.59 78.4418L65.5783 74.9359L63.8436 75.9313ZM67.5858 79.4444L69.6366 75.9385L67.9103 74.9287L65.8595 78.4345L67.5858 79.4444ZM68.7734 76.4336H71.3613V74.4336H68.7734V76.4336ZM70.5106 74.9081L67.3074 80.0936L69.009 81.1447L72.2121 75.9591L70.5106 74.9081ZM67.3079 81.1454L70.6379 86.5262L72.3386 85.4738L69.0085 80.0929L67.3079 81.1454ZM71.4883 85H68.9004V87H71.4883V85ZM69.7623 85.493L67.6139 81.8406L65.89 82.8547L68.0385 86.507L69.7623 85.493ZM65.89 81.8406L63.7416 85.493L65.4654 86.507L67.6139 82.8547L65.89 81.8406ZM64.6035 85H62.0059V87H64.6035V85ZM62.8569 86.5251L66.1772 81.1443L64.4752 80.094L61.1548 85.4749L62.8569 86.5251ZM66.1777 80.0948L62.9843 74.9092L61.2813 75.958L64.4747 81.1435L66.1777 80.0948ZM62.1328 76.4336H64.7109V74.4336H62.1328V76.4336ZM78.0312 75.4336V74.4336H77.0312V75.4336H78.0312ZM80.3848 75.4336H81.3848V74.4336H80.3848V75.4336ZM80.3848 84.125H79.3848V85.125H80.3848V84.125ZM83.7344 84.125V85.125H84.7344V84.125H83.7344ZM83.7344 75.4336V74.4336H82.7344V75.4336H83.7344ZM86.1074 75.4336H87.1074V74.4336H86.1074V75.4336ZM86.1074 84.125H85.1074V85.125H86.1074V84.125ZM89.4473 84.125V85.125H90.4473V84.125H89.4473ZM89.4473 75.4336V74.4336H88.4473V75.4336H89.4473ZM91.8008 75.4336H92.8008V74.4336H91.8008V75.4336ZM91.8008 86V87H92.8008V86H91.8008ZM78.0312 86H77.0312V87H78.0312V86ZM78.0312 76.4336H80.3848V74.4336H78.0312V76.4336ZM79.3848 75.4336V84.125H81.3848V75.4336H79.3848ZM80.3848 85.125H83.7344V83.125H80.3848V85.125ZM84.7344 84.125V75.4336H82.7344V84.125H84.7344ZM83.7344 76.4336H86.1074V74.4336H83.7344V76.4336ZM85.1074 75.4336V84.125H87.1074V75.4336H85.1074ZM86.1074 85.125H89.4473V83.125H86.1074V85.125ZM90.4473 84.125V75.4336H88.4473V84.125H90.4473ZM89.4473 76.4336H91.8008V74.4336H89.4473V76.4336ZM90.8008 75.4336V86H92.8008V75.4336H90.8008ZM91.8008 85H78.0312V87H91.8008V85ZM79.0312 86V75.4336H77.0312V86H79.0312ZM99.2422 75.4336H100.242V74.4336H99.2422V75.4336ZM99.2422 86V87H100.242V86H99.2422ZM96.8789 86H95.8789V87H96.8789V86ZM96.8789 75.4336V74.4336H95.8789V75.4336H96.8789ZM102.709 75.4336H103.709V74.4336H102.709V75.4336ZM102.709 77.2891V78.2891H103.709V77.2891H102.709ZM93.4707 77.2891H92.4707V78.2891H93.4707V77.2891ZM93.4707 75.4336V74.4336H92.4707V75.4336H93.4707ZM98.2422 75.4336V86H100.242V75.4336H98.2422ZM99.2422 85H96.8789V87H99.2422V85ZM97.8789 86V75.4336H95.8789V86H97.8789ZM96.8789 76.4336H99.2422V74.4336H96.8789V76.4336ZM101.709 75.4336V77.2891H103.709V75.4336H101.709ZM102.709 76.2891H93.4707V78.2891H102.709V76.2891ZM94.4707 77.2891V75.4336H92.4707V77.2891H94.4707ZM93.4707 76.4336H102.709V74.4336H93.4707V76.4336ZM107.465 84.8477L108.402 85.1958L108.413 85.1679L108.421 85.1394L107.465 84.8477ZM110.336 75.4336V74.4336H109.595L109.379 75.1419L110.336 75.4336ZM112.855 75.4336L113.8 75.7623L114.262 74.4336H112.855V75.4336ZM108.617 87.6113L109.554 87.9625L109.558 87.9513L109.562 87.94L108.617 87.6113ZM107.621 89.3301L106.888 88.6496L106.88 88.6587L106.872 88.6679L107.621 89.3301ZM106.693 90.0039L106.278 89.0941L106.272 89.0971L106.265 89.1002L106.693 90.0039ZM104.74 90.209L104.936 89.2284L104.923 89.2258L104.91 89.2235L104.74 90.209ZM104.203 90.1016L103.203 90.107L103.207 90.8981L103.978 91.076L104.203 90.1016ZM104.193 88.3047L104.293 87.3097L103.187 87.1991L103.193 88.3101L104.193 88.3047ZM104.428 88.3242L104.356 89.3217L104.361 89.322L104.428 88.3242ZM105.639 88.1875L105.308 87.2436L105.298 87.2473L105.288 87.2512L105.639 88.1875ZM106.273 87.7383L105.497 87.1077L105.491 87.1151L105.485 87.1226L106.273 87.7383ZM106.703 86.8984L105.766 86.5503L105.76 86.5661L105.754 86.5822L106.703 86.8984ZM105.844 75.4336L106.797 75.1312L106.576 74.4336H105.844V75.4336ZM108.354 83.3438L109.339 83.1768L109.328 83.1079L109.307 83.0413L108.354 83.3438ZM108.773 85.8242L109.023 86.7926L109.913 86.5635L109.759 85.6573L108.773 85.8242ZM107.143 86.2441L106.2 86.5787L106.506 87.4406L107.392 87.2126L107.143 86.2441ZM103.305 75.4336V74.4336H101.889L102.362 75.7682L103.305 75.4336ZM108.421 85.1394L111.292 75.7253L109.379 75.1419L106.508 84.5559L108.421 85.1394ZM110.336 76.4336H112.855V74.4336H110.336V76.4336ZM111.911 75.1049L107.673 87.2826L109.562 87.94L113.8 75.7623L111.911 75.1049ZM107.681 87.2602C107.599 87.4782 107.489 87.7264 107.346 88.0062L109.127 88.9157C109.297 88.5835 109.44 88.2653 109.554 87.9625L107.681 87.2602ZM107.346 88.0062C107.235 88.2233 107.085 88.438 106.888 88.6496L108.354 90.0105C108.665 89.6753 108.925 89.3106 109.127 88.9157L107.346 88.0062ZM106.872 88.6679C106.725 88.8334 106.534 88.9776 106.278 89.0941L107.108 90.9137C107.595 90.6917 108.022 90.3866 108.37 89.9923L106.872 88.6679ZM106.265 89.1002C106.06 89.1972 105.766 89.2676 105.346 89.2676V91.2676C105.981 91.2676 106.584 91.1622 107.121 90.9076L106.265 89.1002ZM105.346 89.2676C105.2 89.2676 105.064 89.254 104.936 89.2284L104.544 91.1896C104.807 91.2421 105.075 91.2676 105.346 91.2676V89.2676ZM104.91 89.2235C104.738 89.1938 104.577 89.1616 104.428 89.1272L103.978 91.076C104.167 91.1196 104.365 91.159 104.57 91.1944L104.91 89.2235ZM105.203 90.0961L105.193 88.2993L103.193 88.3101L103.203 90.107L105.203 90.0961ZM104.094 89.2997C104.171 89.3075 104.259 89.3147 104.356 89.3217L104.499 87.3268C104.414 87.3207 104.346 87.3149 104.293 87.3097L104.094 89.2997ZM104.361 89.322C104.468 89.3292 104.572 89.334 104.662 89.334V87.334C104.635 87.334 104.582 87.3323 104.494 87.3264L104.361 89.322ZM104.662 89.334C105.128 89.334 105.582 89.2769 105.99 89.1238L105.288 87.2512C105.175 87.2934 104.978 87.334 104.662 87.334V89.334ZM105.969 89.1314C106.402 88.9798 106.775 88.72 107.061 88.3539L105.485 87.1226C105.446 87.1732 105.396 87.2129 105.308 87.2436L105.969 89.1314ZM107.05 88.3689C107.318 88.0388 107.51 87.6401 107.652 87.2147L105.754 86.5822C105.662 86.8599 105.568 87.0211 105.497 87.1077L107.05 88.3689ZM107.641 87.2466L108.402 85.1958L106.527 84.4995L105.766 86.5503L107.641 87.2466ZM104.891 75.736L107.4 83.6462L109.307 83.0413L106.797 75.1312L104.891 75.736ZM107.368 83.5107L107.787 85.9911L109.759 85.6573L109.339 83.1768L107.368 83.5107ZM108.524 84.8558L106.893 85.2757L107.392 87.2126L109.023 86.7926L108.524 84.8558ZM108.085 85.9096L104.247 75.099L102.362 75.7682L106.2 86.5787L108.085 85.9096ZM103.305 76.4336H105.844V74.4336H103.305V76.4336ZM116.742 75.4336H117.742V74.4336H116.742V75.4336ZM116.742 86V87H117.742V86H116.742ZM114.389 86H113.389V87H114.389V86ZM114.389 75.4336V74.4336H113.389V75.4336H114.389ZM123.637 75.4336L124.437 76.0326L125.634 74.4336H123.637V75.4336ZM118.881 81.791V82.791H119.382L119.682 82.39L118.881 81.791ZM116.195 81.791L115.206 81.9362L115.331 82.791H116.195V81.791ZM115.883 79.6621V78.6621H114.725L114.893 79.8073L115.883 79.6621ZM117.846 79.6621V80.6621H118.377L118.675 80.2212L117.846 79.6621ZM120.697 75.4336V74.4336H120.165L119.868 74.8745L120.697 75.4336ZM120.883 86L120.06 86.5683L120.358 87H120.883V86ZM117.699 81.3906L117.114 80.5795L116.32 81.1526L116.876 81.9589L117.699 81.3906ZM119.555 80.0527L120.357 79.4559L119.769 78.6653L118.97 79.2416L119.555 80.0527ZM123.979 86V87H125.969L124.781 85.4032L123.979 86ZM115.742 75.4336V86H117.742V75.4336H115.742ZM116.742 85H114.389V87H116.742V85ZM115.389 86V75.4336H113.389V86H115.389ZM114.389 76.4336H116.742V74.4336H114.389V76.4336ZM122.836 74.8346L118.08 81.192L119.682 82.39L124.437 76.0326L122.836 74.8346ZM118.881 80.791H116.195V82.791H118.881V80.791ZM117.185 81.6458L116.872 79.5169L114.893 79.8073L115.206 81.9362L117.185 81.6458ZM115.883 80.6621H117.846V78.6621H115.883V80.6621ZM118.675 80.2212L121.526 75.9927L119.868 74.8745L117.017 79.103L118.675 80.2212ZM120.697 76.4336H123.637V74.4336H120.697V76.4336ZM121.706 85.4317L118.522 80.8223L116.876 81.9589L120.06 86.5683L121.706 85.4317ZM118.284 82.2018L120.14 80.8639L118.97 79.2416L117.114 80.5795L118.284 82.2018ZM118.752 80.6496L123.176 86.5968L124.781 85.4032L120.357 79.4559L118.752 80.6496ZM123.979 85H120.883V87H123.979V85Z" fill="#F7F7F7" mask="url(#path-3-outside-1_9005_9544)"/>
</svg>
