<svg width="20" height="21" viewBox="0 0 20 21" fill="none" xmlns="http://www.w3.org/2000/svg">
<path fill-rule="evenodd" clip-rule="evenodd" d="M3.50686 4.00711C2.47487 5.0391 1.99976 6.89285 1.99976 10.5C1.99976 14.1071 2.47487 15.9609 3.50686 16.9929C4.53886 18.0249 6.39261 18.5 9.99976 18.5C13.6069 18.5 15.4607 18.0249 16.4927 16.9929C17.5246 15.9609 17.9998 14.1071 17.9998 10.5C17.9998 6.89285 17.5246 5.0391 16.4927 4.00711C15.4607 2.97511 13.6069 2.5 9.99976 2.5C6.39261 2.5 4.53886 2.97511 3.50686 4.00711ZM2.09265 2.59289C3.76066 0.924886 6.4069 0.5 9.99976 0.5C13.5926 0.5 16.2389 0.924886 17.9069 2.59289C19.5749 4.2609 19.9998 6.90715 19.9998 10.5C19.9998 14.0929 19.5749 16.7391 17.9069 18.4071C16.2389 20.0751 13.5926 20.5 9.99976 20.5C6.4069 20.5 3.76066 20.0751 2.09265 18.4071C0.424642 16.7391 -0.000244141 14.0929 -0.000244141 10.5C-0.000244141 6.90715 0.424642 4.2609 2.09265 2.59289ZM6.29265 8.79289C6.68317 8.40237 7.31634 8.40237 7.70686 8.79289L9.99976 11.0858L12.2927 8.79289C12.6832 8.40237 13.3163 8.40237 13.7069 8.79289C14.0974 9.18342 14.0974 9.81658 13.7069 10.2071L10.7069 13.2071C10.3163 13.5976 9.68318 13.5976 9.29265 13.2071L6.29265 10.2071C5.90213 9.81658 5.90213 9.18342 6.29265 8.79289Z" fill="black"/>
</svg>
