<svg width="189" height="73" viewBox="0 0 189 73" fill="none" xmlns="http://www.w3.org/2000/svg">
<path d="M131.998 70.6386V65.7936C131.998 65.4224 131.923 65.1006 131.772 64.828C131.627 64.5497 131.406 64.3351 131.111 64.1843C130.815 64.0336 130.45 63.9582 130.015 63.9582C129.609 63.9582 129.252 64.0278 128.945 64.1669C128.643 64.3061 128.405 64.4888 128.231 64.7149C128.063 64.9411 127.979 65.1847 127.979 65.4456H126.37C126.37 65.1093 126.457 64.7758 126.631 64.4453C126.805 64.1148 127.054 63.8161 127.379 63.5494C127.71 63.2768 128.104 63.0622 128.562 62.9057C129.026 62.7433 129.542 62.6621 130.11 62.6621C130.795 62.6621 131.398 62.7781 131.92 63.01C132.447 63.242 132.859 63.5928 133.155 64.0626C133.456 64.5265 133.607 65.1093 133.607 65.811V70.195C133.607 70.5081 133.633 70.8416 133.685 71.1953C133.743 71.549 133.827 71.8535 133.938 72.1087V72.2478H132.259C132.178 72.0623 132.114 71.8158 132.067 71.5085C132.021 71.1953 131.998 70.9054 131.998 70.6386ZM132.276 66.5416L132.294 67.6724H130.667C130.209 67.6724 129.8 67.7101 129.441 67.7855C129.081 67.8551 128.779 67.9624 128.536 68.1074C128.292 68.2523 128.107 68.435 127.979 68.6554C127.852 68.8699 127.788 69.1222 127.788 69.4121C127.788 69.7079 127.855 69.9775 127.988 70.2211C128.121 70.4646 128.321 70.6589 128.588 70.8039C128.861 70.9431 129.194 71.0126 129.588 71.0126C130.081 71.0126 130.516 70.9083 130.893 70.6995C131.27 70.4907 131.569 70.2356 131.789 69.934C132.015 69.6325 132.137 69.3396 132.154 69.0555L132.842 69.8297C132.801 70.0732 132.691 70.3429 132.511 70.6386C132.331 70.9344 132.091 71.2185 131.789 71.4911C131.493 71.7578 131.14 71.9811 130.728 72.1608C130.322 72.3348 129.864 72.4218 129.354 72.4218C128.716 72.4218 128.156 72.2971 127.675 72.0478C127.199 71.7984 126.828 71.465 126.561 71.0474C126.3 70.6241 126.17 70.1515 126.17 69.6296C126.17 69.1251 126.269 68.6815 126.466 68.2987C126.663 67.9102 126.947 67.5883 127.318 67.3332C127.689 67.0722 128.136 66.8751 128.658 66.7417C129.18 66.6083 129.762 66.5416 130.406 66.5416H132.276Z" fill="#2250C5"/>
<path d="M118.315 68.2202H119.985C119.898 69.0205 119.669 69.7367 119.298 70.3688C118.927 71.0009 118.402 71.5025 117.724 71.8736C117.045 72.2389 116.199 72.4216 115.184 72.4216C114.442 72.4216 113.766 72.2824 113.157 72.0041C112.554 71.7257 112.035 71.3314 111.6 70.8211C111.165 70.305 110.829 69.6874 110.591 68.9683C110.359 68.2434 110.243 67.4374 110.243 66.5501V65.2889C110.243 64.4016 110.359 63.5985 110.591 62.8794C110.829 62.1545 111.168 61.534 111.609 61.0179C112.055 60.5018 112.592 60.1046 113.218 59.8262C113.844 59.5479 114.549 59.4087 115.332 59.4087C116.289 59.4087 117.098 59.5885 117.759 59.948C118.42 60.3075 118.933 60.8062 119.298 61.4441C119.669 62.0762 119.898 62.8098 119.985 63.6448H118.315C118.234 63.0534 118.083 62.5459 117.863 62.1226C117.643 61.6935 117.33 61.3629 116.924 61.131C116.518 60.899 115.987 60.7831 115.332 60.7831C114.769 60.7831 114.273 60.8903 113.844 61.1049C113.421 61.3195 113.064 61.6239 112.774 62.0182C112.49 62.4126 112.276 62.8852 112.131 63.4361C111.986 63.987 111.913 64.5988 111.913 65.2715V66.5501C111.913 67.1706 111.977 67.7534 112.105 68.2985C112.238 68.8436 112.438 69.3221 112.705 69.7338C112.972 70.1455 113.311 70.4702 113.723 70.708C114.134 70.94 114.621 71.0559 115.184 71.0559C115.897 71.0559 116.465 70.9429 116.889 70.7167C117.312 70.4905 117.631 70.1658 117.846 69.7425C118.066 69.3192 118.223 68.8117 118.315 68.2202Z" fill="#2250C5"/>
<path d="M100.466 72.4218C99.8104 72.4218 99.216 72.3116 98.6825 72.0913C98.1548 71.8651 97.6996 71.549 97.3169 71.1431C96.9399 70.7372 96.65 70.2559 96.447 69.6992C96.2441 69.1425 96.1426 68.5336 96.1426 67.8725V67.5072C96.1426 66.7417 96.2557 66.0603 96.4818 65.463C96.708 64.8599 97.0153 64.3496 97.4039 63.9321C97.7924 63.5146 98.2331 63.1985 98.726 62.984C99.2189 62.7694 99.7292 62.6621 100.257 62.6621C100.93 62.6621 101.51 62.7781 101.997 63.01C102.49 63.242 102.893 63.5668 103.206 63.9843C103.519 64.396 103.751 64.8831 103.902 65.4456C104.052 66.0023 104.128 66.6112 104.128 67.2723V67.9943H97.0994V66.6808H102.519V66.559C102.495 66.1415 102.408 65.7356 102.258 65.3412C102.113 64.9469 101.881 64.6222 101.562 64.367C101.243 64.1119 100.808 63.9843 100.257 63.9843C99.8916 63.9843 99.5553 64.0626 99.2479 64.2191C98.9406 64.3699 98.6767 64.5961 98.4564 64.8976C98.236 65.1992 98.0649 65.5674 97.9432 66.0023C97.8214 66.4372 97.7605 66.9389 97.7605 67.5072V67.8725C97.7605 68.319 97.8214 68.7394 97.9432 69.1338C98.0707 69.5223 98.2534 69.8644 98.4912 70.1602C98.7347 70.4559 99.0276 70.6879 99.3697 70.8561C99.7177 71.0242 100.112 71.1083 100.553 71.1083C101.121 71.1083 101.602 70.9923 101.997 70.7604C102.391 70.5284 102.736 70.2182 103.032 69.8297L104.006 70.6038C103.803 70.9112 103.545 71.204 103.232 71.4824C102.919 71.7607 102.533 71.9869 102.075 72.1608C101.623 72.3348 101.086 72.4218 100.466 72.4218Z" fill="#2250C5"/>
<path d="M81.4077 59.5828H85.6004C86.5514 59.5828 87.3546 59.7277 88.0099 60.0177C88.6709 60.3076 89.1726 60.7368 89.5147 61.3051C89.8626 61.8676 90.0366 62.5605 90.0366 63.384C90.0366 63.9639 89.9177 64.4945 89.68 64.9758C89.448 65.4513 89.1117 65.8573 88.6709 66.1936C88.236 66.5241 87.7141 66.7706 87.1052 66.933L86.6355 67.1156H82.6951L82.6777 65.75H85.6526C86.2557 65.75 86.7573 65.6456 87.1574 65.4368C87.5575 65.2223 87.8591 64.9352 88.062 64.5757C88.265 64.2162 88.3665 63.8189 88.3665 63.384C88.3665 62.8969 88.2708 62.4707 88.0794 62.1053C87.8881 61.74 87.5865 61.4587 87.1748 61.2616C86.7689 61.0586 86.2441 60.9571 85.6004 60.9571H83.0865V72.2477H81.4077V59.5828ZM88.8101 72.2477L85.7309 66.5067L87.4792 66.4981L90.602 72.1434V72.2477H88.8101Z" fill="#2250C5"/>
<path d="M66.1592 67.6463V67.4463C66.1592 66.7678 66.2578 66.1386 66.4549 65.5587C66.6521 64.973 66.9362 64.4656 67.3074 64.0365C67.6785 63.6015 68.1279 63.2652 68.6556 63.0274C69.1833 62.7839 69.7748 62.6621 70.4301 62.6621C71.0912 62.6621 71.6856 62.7839 72.2133 63.0274C72.7468 63.2652 73.1991 63.6015 73.5703 64.0365C73.9472 64.4656 74.2343 64.973 74.4314 65.5587C74.6286 66.1386 74.7272 66.7678 74.7272 67.4463V67.6463C74.7272 68.3248 74.6286 68.954 74.4314 69.5339C74.2343 70.1138 73.9472 70.6212 73.5703 71.0561C73.1991 71.4853 72.7497 71.8216 72.222 72.0652C71.7001 72.3029 71.1086 72.4218 70.4475 72.4218C69.7864 72.4218 69.192 72.3029 68.6643 72.0652C68.1366 71.8216 67.6843 71.4853 67.3074 71.0561C66.9362 70.6212 66.6521 70.1138 66.4549 69.5339C66.2578 68.954 66.1592 68.3248 66.1592 67.6463ZM67.7684 67.4463V67.6463C67.7684 68.1161 67.8235 68.5597 67.9337 68.9772C68.0438 69.3889 68.2091 69.7543 68.4295 70.0732C68.6556 70.3922 68.9369 70.6444 69.2732 70.83C69.6096 71.0097 70.001 71.0996 70.4475 71.0996C70.8882 71.0996 71.2739 71.0097 71.6044 70.83C71.9408 70.6444 72.2191 70.3922 72.4395 70.0732C72.6598 69.7543 72.8251 69.3889 72.9353 68.9772C73.0513 68.5597 73.1093 68.1161 73.1093 67.6463V67.4463C73.1093 66.9824 73.0513 66.5445 72.9353 66.1328C72.8251 65.7153 72.6569 65.347 72.4308 65.0281C72.2104 64.7034 71.9321 64.4482 71.5957 64.2626C71.2652 64.0771 70.8767 63.9843 70.4301 63.9843C69.9894 63.9843 69.6009 64.0771 69.2645 64.2626C68.934 64.4482 68.6556 64.7034 68.4295 65.0281C68.2091 65.347 68.0438 65.7153 67.9337 66.1328C67.8235 66.5445 67.7684 66.9824 67.7684 67.4463Z" fill="#2250C5"/>
<path d="M57.9651 65.028V66.3937H51.1107V65.028H57.9651ZM51.3717 59.5828V72.2477H49.6929V59.5828H51.3717ZM59.4265 59.5828V72.2477H57.7564V59.5828H59.4265Z" fill="#2250C5"/>
<path d="M154.442 47.5993H149.047L166.102 7.42188H171.861L189 47.5993H183.24L178.043 34.956H164.753L166.186 30.7416H176.301L168.799 12.5354L154.442 47.5993Z" fill="#2250C5"/>
<path d="M117.611 47.5993V7.42188H133.907C142.111 7.42188 146.213 11.0088 146.213 18.1827C146.213 25.9934 140.603 30.7603 129.383 32.4836L128.315 28.1006C136.557 26.8831 140.678 23.652 140.678 18.4074C140.678 13.9495 138.261 11.7206 133.429 11.7206H122.809V47.5993H117.611Z" fill="#2250C5"/>
<path d="M109.321 7.42188V11.6363H88.249V25.1224H108.338V29.3368H88.249V43.3848H109.743V47.5993H83.0513V7.42188H109.321Z" fill="#2250C5"/>
<path d="M32.3105 46.1944C28.8453 47.3182 25.0992 47.8802 21.0721 47.8802C7.02402 47.8802 0 40.903 0 26.9486C0 13.7434 7.02402 7.14087 21.0721 7.14087C25.0992 7.14087 28.8453 7.70279 32.3105 8.82663V13.322C28.8453 12.0109 25.2865 11.3553 21.634 11.3553C10.6765 11.3553 5.19777 16.5531 5.19777 26.9486C5.19777 38.0934 10.6765 43.6658 21.634 43.6658C25.2865 43.6658 28.8453 43.0102 32.3105 41.699V46.1944Z" fill="#2250C5"/>
<g clip-path="url(#clip0_1_1814)">
<path fill-rule="evenodd" clip-rule="evenodd" d="M56.3288 12.0932C46.2948 12.0932 38.6327 18.9269 38.6327 26.8209C38.6327 34.7149 46.2948 41.5486 56.3288 41.5486C66.3628 41.5486 74.0249 34.7149 74.0249 26.8209C74.0249 18.9269 66.3628 12.0932 56.3288 12.0932ZM35.436 26.8209C35.436 16.6816 45.0507 8.89648 56.3288 8.89648C67.6069 8.89648 77.2216 16.6816 77.2216 26.8209C77.2216 36.9601 67.6069 44.7453 56.3288 44.7453C45.0507 44.7453 35.436 36.9601 35.436 26.8209Z" fill="#CC2C79"/>
<path fill-rule="evenodd" clip-rule="evenodd" d="M56.3287 8.57666C56.8506 8.57666 57.3499 8.78934 57.7116 9.16564C62.0154 13.6439 64.7276 19.1073 65.4907 24.9027H75.6231C76.6824 24.9027 77.5411 25.7614 77.5411 26.8207C77.5411 27.88 76.6824 28.7388 75.6231 28.7388H65.4907C64.7276 34.5342 62.0154 39.9975 57.7116 44.4758C57.3499 44.8521 56.8506 45.0648 56.3287 45.0648C55.8067 45.0648 55.3074 44.8521 54.9457 44.4758C50.6419 39.9975 47.9297 34.5342 47.1666 28.7388H37.0342C35.9749 28.7388 35.1162 27.88 35.1162 26.8207C35.1162 25.7614 35.9749 24.9027 37.0342 24.9027H47.1666C47.9297 19.1073 50.6419 13.6439 54.9457 9.16564C55.3074 8.78934 55.8067 8.57666 56.3287 8.57666ZM51.0418 28.7388C51.6802 32.8556 53.4821 36.811 56.3287 40.2651C59.1752 36.811 60.9771 32.8556 61.6155 28.7388H51.0418ZM61.6155 24.9027H51.0418C51.6802 20.7859 53.4821 16.8305 56.3287 13.3763C59.1752 16.8305 60.9771 20.7859 61.6155 24.9027Z" fill="#CC2C79"/>
</g>
<path d="M53.1313 41.2061H59.5248V47.5995H53.1313V41.2061Z" fill="#CC2C79"/>
<path d="M53.1313 6.04199H59.5248V12.4354H53.1313V6.04199Z" fill="#CC2C79"/>
<path d="M53.1313 0H59.5248V3.19671H53.1313V0Z" fill="#CC2C79"/>
<defs>
<clipPath id="clip0_1_1814">
<rect width="41.5572" height="35.1638" fill="white" transform="translate(35.5498 9.23901)"/>
</clipPath>
</defs>
</svg>
