<svg width="52" height="52" viewBox="0 0 52 52" fill="none" xmlns="http://www.w3.org/2000/svg">
<path d="M47.6673 15.1667V34.6667C47.6673 37.05 45.7173 39 43.334 39H13.0007L4.33398 47.6667V8.66667C4.33398 6.28333 6.28398 4.33333 8.66732 4.33333H30.5507C30.334 4.98333 30.334 5.85 30.334 6.5C30.334 12.5667 35.1007 17.3333 41.1673 17.3333C43.5507 17.3333 45.934 16.4667 47.6673 15.1667ZM34.6673 6.5C34.6673 10.1833 37.484 13 41.1673 13C44.8507 13 47.6673 10.1833 47.6673 6.5C47.6673 2.81667 44.8507 0 41.1673 0C37.484 0 34.6673 2.81667 34.6673 6.5Z" fill="#D8D8D8"/>
<circle cx="41" cy="7" r="7" fill="#D8D8D8"/>
<rect x="13" y="21" width="26" height="3" rx="1.5" fill="white"/>
<rect x="13" y="28" width="26" height="3" rx="1.5" fill="white"/>
</svg>
