<svg width="20" height="21" viewBox="0 0 20 21" fill="none" xmlns="http://www.w3.org/2000/svg">
<path fill-rule="evenodd" clip-rule="evenodd" d="M6.17317 1.2612C7.38642 0.758658 8.68678 0.5 10 0.5C11.3132 0.5 12.6136 0.758658 13.8268 1.2612C15.0401 1.76375 16.1425 2.50035 17.0711 3.42893C17.9997 4.35752 18.7362 5.45991 19.2388 6.67317C19.7413 7.88642 20 9.18678 20 10.5C20 11.8132 19.7413 13.1136 19.2388 14.3268C18.7362 15.5401 17.9997 16.6425 17.0711 17.5711C16.8959 17.7463 16.7145 17.9146 16.5273 18.0759C16.498 18.1042 16.4668 18.1307 16.4339 18.1554C15.6522 18.8123 14.7733 19.3468 13.8268 19.7388C12.6136 20.2413 11.3132 20.5 10 20.5C8.68678 20.5 7.38642 20.2413 6.17317 19.7388C4.95991 19.2362 3.85752 18.4997 2.92893 17.5711C2.00035 16.6425 1.26375 15.5401 0.761205 14.3268C0.258658 13.1136 0 11.8132 0 10.5C0 9.18678 0.258658 7.88642 0.761205 6.67317C1.26375 5.45991 2.00035 4.35752 2.92893 3.42893C3.85752 2.50035 4.95991 1.76375 6.17317 1.2612ZM16.1151 15.658C16.6449 15.03 17.0756 14.323 17.391 13.5615C17.7931 12.5909 18 11.5506 18 10.5C18 9.44942 17.7931 8.40914 17.391 7.43853C16.989 6.46793 16.3997 5.58602 15.6569 4.84315C14.914 4.10028 14.0321 3.511 13.0615 3.10896C12.0909 2.70693 11.0506 2.5 10 2.5C8.94942 2.5 7.90914 2.70693 6.93853 3.10896C5.96793 3.511 5.08601 4.10028 4.34315 4.84315C3.60028 5.58601 3.011 6.46793 2.60896 7.43853C2.20693 8.40914 2 9.44942 2 10.5C2 11.5506 2.20693 12.5909 2.60896 13.5615C2.92443 14.3231 3.35518 15.0301 3.88495 15.6581C4.19341 15.2116 4.57446 14.8154 5.01557 14.4875C5.87834 13.846 6.92488 13.4997 7.99997 13.5M5.38214 17.0326C5.58735 16.6667 5.86827 16.3457 6.20886 16.0925C6.72657 15.7076 7.35456 15.4998 7.99967 15.5H12C12.6459 15.4998 13.275 15.708 13.7931 16.0938C14.1329 16.3468 14.4131 16.6673 14.618 17.0326C14.1338 17.3748 13.6119 17.663 13.0615 17.891C12.0909 18.2931 11.0506 18.5 10 18.5C8.94942 18.5 7.90914 18.2931 6.93853 17.891C6.38816 17.6631 5.8663 17.3749 5.38214 17.0326ZM16.1151 15.658C15.8074 15.2126 15.4274 14.8172 14.9876 14.4897C14.1242 13.8468 13.0764 13.4997 12 13.5C11.9999 13.5 12.0001 13.5 12 13.5H7.99997M7.17157 5.67157C7.92172 4.92143 8.93913 4.5 10 4.5C11.0609 4.5 12.0783 4.92143 12.8284 5.67157C13.5786 6.42172 14 7.43913 14 8.5C14 9.56087 13.5786 10.5783 12.8284 11.3284C12.0783 12.0786 11.0609 12.5 10 12.5C8.93913 12.5 7.92172 12.0786 7.17157 11.3284C6.42143 10.5783 6 9.56087 6 8.5C6 7.43913 6.42143 6.42172 7.17157 5.67157ZM10 6.5C9.46957 6.5 8.96086 6.71071 8.58579 7.08579C8.21071 7.46086 8 7.96957 8 8.5C8 9.03043 8.21071 9.53914 8.58579 9.91421C8.96086 10.2893 9.46957 10.5 10 10.5C10.5304 10.5 11.0391 10.2893 11.4142 9.91421C11.7893 9.53914 12 9.03043 12 8.5C12 7.96957 11.7893 7.46086 11.4142 7.08579C11.0391 6.71071 10.5304 6.5 10 6.5Z" fill="#364FC7"/>
</svg>
