<svg width="106" height="112" viewBox="0 0 106 112" fill="none" xmlns="http://www.w3.org/2000/svg">
<path d="M52.8425 108.94C23.7575 108.94 0 85.3703 0 56.0978C0 26.8253 23.765 3.25537 52.8425 3.25537C69.31 3.25537 84.345 10.8054 94.2325 23.2454C121.69 57.7479 97.005 108.94 52.8425 108.94Z" fill="#DBE4FF"/>
<path d="M7.49689 96.7205C8.86689 96.4555 10.1944 97.3705 10.4594 98.7405C10.7244 100.111 9.82688 101.436 8.45688 101.701C7.08688 101.966 5.74441 101.071 5.47941 99.7006C5.21441 98.3306 6.12689 96.983 7.49689 96.7205Z" fill="#DBE4FF"/>
<path d="M3.53258 91.9301C4.40508 91.7626 5.25009 92.3451 5.41759 93.2151C5.58509 94.0876 5.01506 94.9301 4.14256 95.0976C3.27006 95.2651 2.41508 94.6976 2.24758 93.8251C2.08008 92.9526 2.66008 92.0951 3.53258 91.9276V91.9301Z" fill="#FFDEEB"/>
<path d="M102.251 14.8402C103.621 14.5752 104.948 15.4902 105.213 16.8602C105.478 18.2302 104.581 19.5552 103.211 19.8202C101.841 20.0852 100.498 19.1902 100.233 17.8202C99.9683 16.4502 100.881 15.1027 102.251 14.8402Z" fill="#DBE4FF"/>
<path d="M98.2865 10.0502C99.159 9.88272 100.004 10.4652 100.171 11.3352C100.339 12.2077 99.769 13.0502 98.8965 13.2177C98.024 13.3852 97.169 12.8177 97.0015 11.9452C96.834 11.0727 97.414 10.2152 98.2865 10.0477V10.0502Z" fill="#FFDEEB"/>
<path d="M11.9969 7.14044C13.3669 6.87544 14.6944 7.79046 14.9594 9.16046C15.2244 10.5305 14.3269 11.8555 12.9569 12.1205C11.5869 12.3855 10.2444 11.4905 9.97941 10.1205C9.71441 8.75049 10.6269 7.40294 11.9969 7.14044Z" fill="#DBE4FF"/>
<path d="M85.9955 11.8651L101.505 88.6651C102.555 93.8676 99.1905 98.9351 93.988 99.9851L36.9555 111.503C31.753 112.553 26.6855 109.188 25.6355 103.985L10.1255 27.1852C9.07546 21.9827 12.4404 16.9151 17.6404 15.8651L74.673 4.34763C79.8755 3.29763 84.943 6.66264 85.993 11.8651H85.9955Z" fill="#F9FAFD"/>
<path d="M78.4066 15.8102L93.7241 91.6527L41.7191 102.155C37.4591 103.015 33.2691 100.263 32.4016 95.9702L18.6491 27.8802C18.2391 25.8477 19.5541 23.8677 21.5866 23.4552L73.9816 12.8727C76.0141 12.4627 77.9941 13.7777 78.4066 15.8102Z" fill="#FFF0F6"/>
<path d="M103.635 81.583C104.5 85.8605 101.728 90.0355 97.4501 90.9005L41.7227 102.156C46.0002 101.291 48.7727 97.118 47.9077 92.838L103.635 81.583Z" fill="url(#paint0_linear_9701_3536)"/>
<path d="M62.3302 7.39025L63.8452 14.8953C64.0877 16.1003 63.3102 17.2728 62.1152 17.5153L36.0078 22.7878C34.8127 23.0303 33.6402 22.2503 33.3952 21.0453L31.8802 13.5403C31.6377 12.3353 32.4152 11.1628 33.6102 10.9203L38.8927 9.85278C38.1227 5.61278 40.8827 1.51277 45.1252 0.657771C49.3677 -0.197229 53.5027 2.50777 54.4377 6.71527L59.7202 5.64776C60.9152 5.40526 62.0877 6.18525 62.3327 7.39025H62.3302Z" fill="url(#paint1_linear_9701_3536)"/>
<path d="M49.1613 6.66788C49.4638 8.17288 48.4987 9.6329 46.9962 9.9379C45.4937 10.2429 44.0362 9.26786 43.7312 7.76536C43.4287 6.26786 44.3937 4.8054 45.8987 4.5029C47.4037 4.2004 48.8588 5.17288 49.1613 6.67038V6.66788Z" fill="url(#paint2_linear_9701_3536)"/>
<path d="M41.5934 17.5127C41.1784 17.5127 40.8059 17.2202 40.7209 16.7977C40.6234 16.3152 40.9359 15.8452 41.4184 15.7477L54.3959 13.1277C54.8859 13.0302 55.3509 13.3427 55.4484 13.8252C55.5459 14.3077 55.2334 14.7777 54.7509 14.8752L41.7734 17.4952C41.7134 17.5077 41.6534 17.5127 41.5959 17.5127H41.5934Z" fill="url(#paint3_linear_9701_3536)"/>
<path d="M71.3504 42.7577C73.2479 52.1577 67.1604 61.3277 57.7604 63.2252C48.3504 65.1252 39.1904 59.0352 37.2929 49.6352C35.3929 40.2252 41.4729 31.0677 50.8829 29.1677C60.2829 27.2702 69.4504 33.3477 71.3504 42.7577Z" fill="url(#paint4_linear_9701_3536)"/>
<path d="M66.0769 43.8226C67.3869 50.3126 63.1844 56.6426 56.6944 57.9526C50.1994 59.2651 43.8744 55.0601 42.5644 48.5726C41.2519 42.0776 45.4494 35.7551 51.9469 34.4426C58.4369 33.1326 64.7644 37.3276 66.0769 43.8251V43.8226Z" fill="url(#paint5_linear_9701_3536)"/>
<path d="M51.9299 50.5978L48.5549 47.8528C47.7024 47.1603 47.5724 45.9053 48.2674 45.0528C48.9599 44.1978 50.2149 44.0703 51.0674 44.7653L52.9249 46.2753L56.9949 41.4428C57.7024 40.6003 58.9599 40.4953 59.7999 41.2028C60.6424 41.9103 60.7499 43.1678 60.0399 44.0078L54.7074 50.3378C54.0074 51.1703 52.7674 51.2828 51.9274 50.6003L51.9299 50.5978Z" fill="url(#paint6_linear_9701_3536)"/>
<path d="M81.6875 65.8505C81.85 66.6555 81.33 67.4405 80.5225 67.603L38.4775 76.0955C37.6725 76.258 36.8875 75.738 36.725 74.9305C36.5625 74.1255 37.0825 73.3405 37.89 73.178L79.935 64.6855C80.74 64.523 81.525 65.043 81.6875 65.8505Z" fill="url(#paint7_linear_9701_3536)"/>
<path d="M77.8646 73.8954C78.0271 74.7004 77.507 75.4854 76.6996 75.6479L45.1221 82.0254C44.3171 82.1879 43.5321 81.6679 43.3696 80.8604C43.2071 80.0554 43.7271 79.2704 44.5346 79.1079L76.1121 72.7304C76.9171 72.5679 77.7021 73.0879 77.8646 73.8954Z" fill="url(#paint8_linear_9701_3536)"/>
<defs>
<linearGradient id="paint0_linear_9701_3536" x1="41.7227" y1="91.8693" x2="103.793" y2="91.8693" gradientUnits="userSpaceOnUse">
<stop stop-color="#D6336C"/>
<stop offset="1" stop-color="#D6336C" stop-opacity="0.5"/>
</linearGradient>
<linearGradient id="paint1_linear_9701_3536" x1="31.8359" y1="11.666" x2="63.8896" y2="11.666" gradientUnits="userSpaceOnUse">
<stop stop-color="#D6336C"/>
<stop offset="1" stop-color="#D6336C" stop-opacity="0.5"/>
</linearGradient>
<linearGradient id="paint2_linear_9701_3536" x1="43.7314" y1="7.76943" x2="49.1617" y2="6.6725" gradientUnits="userSpaceOnUse">
<stop stop-color="#D6DCE8"/>
<stop offset="1" stop-color="white"/>
</linearGradient>
<linearGradient id="paint3_linear_9701_3536" x1="40.719" y1="16.7973" x2="55.4465" y2="13.8224" gradientUnits="userSpaceOnUse">
<stop stop-color="#D6DCE8"/>
<stop offset="1" stop-color="white"/>
</linearGradient>
<linearGradient id="paint4_linear_9701_3536" x1="39.5005" y1="38.5005" x2="68.0005" y2="57.0005" gradientUnits="userSpaceOnUse">
<stop stop-color="#364FC7"/>
<stop offset="1" stop-color="#364FC7" stop-opacity="0.8"/>
</linearGradient>
<linearGradient id="paint5_linear_9701_3536" x1="42.5657" y1="48.5734" x2="66.0782" y2="43.8239" gradientUnits="userSpaceOnUse">
<stop stop-color="#D6DCE8"/>
<stop offset="1" stop-color="white"/>
</linearGradient>
<linearGradient id="paint6_linear_9701_3536" x1="54.1648" y1="40.7344" x2="54.1648" y2="51.0459" gradientUnits="userSpaceOnUse">
<stop stop-color="#364FC7"/>
<stop offset="1" stop-color="#364FC7" stop-opacity="0.8"/>
</linearGradient>
<linearGradient id="paint7_linear_9701_3536" x1="40.0056" y1="67.8505" x2="47.0099" y2="85.6979" gradientUnits="userSpaceOnUse">
<stop stop-color="#364FC7"/>
<stop offset="1" stop-color="#364FC7" stop-opacity="0.8"/>
</linearGradient>
<linearGradient id="paint8_linear_9701_3536" x1="45.8805" y1="75.3063" x2="51.8482" y2="89.6157" gradientUnits="userSpaceOnUse">
<stop stop-color="#364FC7"/>
<stop offset="1" stop-color="#364FC7" stop-opacity="0.8"/>
</linearGradient>
</defs>
</svg>
